<svg width="285" height="283" viewBox="0 0 285 283" fill="none" xmlns="http://www.w3.org/2000/svg">
<path d="M27.294 179.5C40.794 166 49.2938 153 112.294 130.5L142.294 132.5V278H85.294C72.5523 244.757 62.5034 226.243 85.294 191.5L61.7939 197C70.3437 205.575 42.6059 222.818 40.7935 238.5C57.3948 235.298 63.3842 247.5 63.3842 250.5L68.794 278C68.794 278 43.2951 287.5 27.2943 278C11.2935 268.5 -2.17702 246.346 0.293789 228C4.44047 212.569 13.794 193 27.294 179.5Z" fill="#0F3057"/>
<path d="M257.293 179C243.793 165.5 235.294 152.5 172.293 130L142.293 132V277.5H199.293C212.035 244.257 222.084 225.743 199.293 191L222.793 196.5C211.986 203.794 239.34 220.357 243.794 238C227.193 234.798 221.203 247 221.203 250L215.793 277.5C215.793 277.5 241.292 287 257.293 277.5C273.294 268 286.764 245.846 284.294 227.5C280.147 212.069 270.793 192.5 257.293 179Z" fill="#0F3057"/>
<ellipse cx="140.793" cy="143" rx="30.5" ry="29" fill="white"/>
<ellipse cx="141.293" cy="132.5" rx="27" ry="28.5" fill="#C59074"/>
<ellipse rx="6" ry="8.5" transform="matrix(-1 0 0 1 90.2935 76.5)" fill="#E4AE92"/>
<path d="M92.2935 82L91.7935 72.2624C89.7066 69.8506 87.7935 70.7249 87.2935 76.3624C87.7935 79.95 89.6933 81.428 92.2935 82Z" fill="#C49074" stroke="#C49074"/>
<ellipse cx="185.293" cy="78.5" rx="6" ry="8.5" fill="#E4AE92"/>
<path d="M183.293 84L183.793 74.2624C185.88 71.8506 187.793 72.7249 188.293 78.3624C187.793 81.95 185.894 83.428 183.293 84Z" fill="#C49074" stroke="#C49074"/>
<path d="M182.293 106C182.293 106 187.141 48.0932 181.813 37.0195C164.47 0.972431 110.705 -0.0210991 93.4348 37.0195C88.1149 48.429 93.7226 97.87 94.5661 104.999C94.6361 105.59 94.7608 106.157 94.9442 106.724C111.165 156.846 168.308 158.91 182.293 106Z" fill="#E4AE92"/>
<path d="M128.672 59.7957C128.172 60.7957 104.672 62.2957 103.672 61.7957C102.672 61.2957 100.751 57.2957 101.251 57.2957C101.751 57.2957 124.251 53.2957 126.751 53.2957C129.251 53.2957 129.172 58.7957 128.672 59.7957Z" fill="black" stroke="black"/>
<ellipse cx="117.669" cy="72.7957" rx="5.5" ry="6.5" fill="black"/>
<circle cx="118.669" cy="69.7957" r="1.5" fill="white"/>
<ellipse cx="158.669" cy="72.7957" rx="5.5" ry="6.5" fill="black"/>
<circle cx="159.669" cy="69.7957" r="1.5" fill="white"/>
<path d="M147.449 59.7957C147.949 60.7957 171.449 62.2957 172.449 61.7957C173.449 61.2957 175.37 57.2957 174.87 57.2957C174.37 57.2957 151.87 53.2957 149.37 53.2957C146.87 53.2957 146.949 58.7957 147.449 59.7957Z" fill="black" stroke="black"/>
<path d="M93.4346 48.3564C93.7081 57.444 92.3662 65.0668 91.9346 73.3564L90.9346 71.3564C88.4605 48.4986 93.669 27.8564 97.669 22.3564C101.669 16.8564 116.435 10.3564 116.435 10.3564L134.935 9.35643C147.178 9.07612 152.892 9.6866 159.935 12.8564C166.677 11.8674 171.096 18.3116 177.669 26.7957C182.201 31.2009 187.328 49.1928 184.435 71.3564L183.935 73.3564C183.658 65.1826 181.995 58.6215 182.435 48.3564C177.856 36.187 168.433 26.5934 169.169 20.7957C151.69 15.1209 142.29 10.4777 106.169 17.2957C106.188 23.2986 96.8826 35.549 93.4346 48.3564Z" fill="#B77A63"/>
<path d="M119.169 22.2956C125.008 24.0969 128.569 27.7859 135.746 30.0222C136.326 30.2028 136.956 30.09 137.45 29.7373C144.975 24.3648 147.088 23.0324 150.612 23.25C150.976 23.2725 151.345 23.2117 151.675 23.0566C158.162 20.0088 161.619 19.1203 166.669 20.2956C167.188 24.3462 169.738 25.1916 173.328 27.1116C173.554 27.2323 173.801 27.3119 174.056 27.3388C178.36 27.794 179.181 27.0096 179.569 25.2999C179.643 24.9714 179.613 24.6264 179.5 24.3091C177.343 18.2569 174.6 16.2858 169.669 11.7956C161.506 6.79262 147.571 -0.49403 143.169 1.79564C144.064 3.60229 136.169 -2.20432 136.169 3.79569C132.29 2.19169 124.212 -0.187924 119.443 1.79564C120.741 4.76776 117.635 4.07944 116.169 5.29563C109.488 4.28399 105.916 4.27718 103.857 5.64529C103.054 6.17868 103.166 7.28984 103.785 8.02822C105.366 9.91257 104.652 10.0314 103.669 10.7956L97.1689 12.7957C93.0209 14.0787 93.7391 14.7995 97.6689 20.2956C98.9181 21.9513 98.4247 22.9646 102.669 23.2956C108.426 24.8555 112.866 24.3416 119.169 22.2956Z" fill="#23130C" stroke="#23130C"/>
<path d="M147.169 97.2957C141.101 98.8247 137.235 98.8538 131.169 97.2957C132.725 99.7116 134.691 100.7 139.169 101.296C144.246 100.74 145.537 99.6264 147.169 97.2957Z" fill="#B77A63"/>
<path d="M124.169 108.796C136.395 115.257 143.202 115.147 154.669 108.796C156.107 131.593 126.521 130.691 124.169 108.796Z" fill="white"/>
<path d="M126.669 117.296C136.197 120.122 147.877 118.987 152.169 116.796" stroke="#AEAEAE"/>
<path d="M146.169 129.796H136.669C139.119 133.341 137.336 136.796 136.669 137.796C133.669 142.296 124.169 138.796 116.169 136.796C118.169 138.796 127.097 145.601 136.669 148.296C141.354 149.156 143.482 149.023 146.169 148.296C154.824 145.057 162.669 139.296 165.169 135.296C155.169 139.796 148.794 141.296 146.169 137.796C144.669 135.796 144.205 133.869 146.169 129.796Z" fill="#23130C" stroke="#23130C"/>
<rect x="53.2937" y="178" width="174" height="100" rx="5" fill="#606860"/>
<path d="M53.2937 190.914C53.2937 188.152 55.5323 185.914 58.2937 185.914H222.294C225.055 185.914 227.294 188.152 227.294 190.914V273C227.294 275.762 225.055 278 222.294 278H58.2937C55.5323 278 53.2937 275.762 53.2937 273V190.914Z" fill="#858585"/>
<g clip-path="url(#clip0)">
<rect x="69.7554" y="247.888" width="17" height="14" transform="rotate(30 69.7554 247.888)" fill="white"/>
<path d="M64.6135 248.409L58.9983 258.134L78.45 269.365L89.6805 249.913L70.2288 238.683L64.6135 248.409ZM80.7377 256.681C81.1412 257.058 81.424 257.546 81.5503 258.083C81.6223 258.375 81.6584 258.675 81.6578 258.975C81.6434 259 80.4752 259.083 79.7799 259.105C79.7541 259.107 79.7261 258.983 79.7146 258.812C79.7142 258.597 79.6594 258.385 79.5551 258.197C79.4508 258.009 79.3005 257.85 79.1183 257.735C78.5519 257.354 77.9934 257.445 77.7027 257.955C77.6247 258.079 77.5811 258.222 77.5765 258.368C77.5502 258.712 77.6989 259.011 78.2665 259.775C79.3134 261.178 79.6812 261.917 79.7272 262.693C79.7817 263.554 79.2932 264.613 78.5836 265.195C77.8052 265.824 76.7255 265.933 75.542 265.493C75.0169 265.265 74.5223 264.972 74.0696 264.622C73.3883 264.063 72.9035 263.301 72.6858 262.447C72.621 262.147 72.5698 261.43 72.6131 261.405C72.6943 261.396 72.776 261.393 72.8577 261.395L73.8081 261.413L74.5537 261.412L74.5707 261.652C74.605 262.047 74.717 262.432 74.9004 262.784C75.3342 263.47 76.2099 263.916 76.8483 263.78C77.0694 263.723 77.2635 263.59 77.3967 263.405C77.5299 263.219 77.5939 262.993 77.5774 262.765C77.5467 262.459 77.3406 262.097 76.6899 261.215C75.936 260.203 75.6579 259.686 75.5088 259.031C75.4245 258.607 75.434 258.17 75.5366 257.751C75.6954 257.295 75.9265 256.868 76.2211 256.486C76.9878 255.636 78.1053 255.379 79.2825 255.791C79.8091 256.013 80.2991 256.315 80.7359 256.684L80.7377 256.681ZM75.7012 254.86L75.2412 255.657L72.7156 254.198L68.5622 261.393L66.771 260.358L70.9254 253.163L68.3936 251.701L68.8428 250.923C68.9898 250.65 69.1511 250.385 69.326 250.129C69.3465 250.122 70.8902 251.014 72.7575 252.092L76.1546 254.053L75.7012 254.86Z" fill="#007ACC"/>
</g>
<rect x="70.3051" y="239.012" width="22" height="22" transform="rotate(30 70.3051 239.012)" stroke="white"/>
<g clip-path="url(#clip1)">
<mask id="path-27-outside-1" maskUnits="userSpaceOnUse" x="103.37" y="238.079" width="37.9269" height="36.2684" fill="black">
<rect fill="white" x="103.37" y="238.079" width="37.9269" height="36.2684"/>
<path d="M105.973 250.417L115.375 246.656L119.904 250.187L120.762 244.481L130.082 240.683L126.435 266.282L105.973 250.417ZM129.938 240.88L125.351 242.737L123.128 258.104L110.862 248.587L106.199 250.466L126.31 265.98L129.938 240.88ZM125.201 242.791L120.929 244.553L119.969 250.34L115.303 246.824L110.997 248.526L123.007 257.801L125.201 242.791ZM110.904 248.527L115.237 246.779L110.904 248.527ZM110.904 248.527L115.237 246.779Z"/>
</mask>
<path d="M105.973 250.417L105.601 249.489L103.98 250.138L105.36 251.208L105.973 250.417ZM115.375 246.656L115.99 245.867L115.537 245.514L115.004 245.727L115.375 246.656ZM119.904 250.187L119.289 250.976L120.639 252.028L120.893 250.336L119.904 250.187ZM120.762 244.481L120.384 243.555L119.857 243.769L119.773 244.332L120.762 244.481ZM130.082 240.683L131.072 240.824L131.317 239.1L129.704 239.757L130.082 240.683ZM126.435 266.282L125.822 267.073L127.182 268.127L127.425 266.424L126.435 266.282ZM129.938 240.88L130.928 241.023L131.177 239.3L129.563 239.953L129.938 240.88ZM125.351 242.737L124.976 241.81L124.444 242.025L124.362 242.594L125.351 242.737ZM123.128 258.104L122.515 258.894L123.872 259.947L124.118 258.247L123.128 258.104ZM110.862 248.587L111.475 247.797L111.021 247.445L110.488 247.66L110.862 248.587ZM106.199 250.466L105.825 249.538L104.205 250.191L105.588 251.258L106.199 250.466ZM126.31 265.98L125.699 266.772L127.055 267.817L127.3 266.123L126.31 265.98ZM125.201 242.791L126.19 242.936L126.444 241.197L124.819 241.867L125.201 242.791ZM120.929 244.553L120.548 243.628L120.034 243.84L119.943 244.389L120.929 244.553ZM119.969 250.34L119.367 251.139L120.685 252.132L120.955 250.504L119.969 250.34ZM115.303 246.824L115.905 246.026L115.457 245.688L114.936 245.894L115.303 246.824ZM110.997 248.526L110.63 247.596L108.994 248.243L110.386 249.318L110.997 248.526ZM123.007 257.801L122.396 258.592L123.75 259.638L123.997 257.946L123.007 257.801ZM106.344 251.346L115.746 247.584L115.004 245.727L105.601 249.489L106.344 251.346ZM114.76 247.444L119.289 250.976L120.519 249.399L115.99 245.867L114.76 247.444ZM120.893 250.336L121.751 244.629L119.773 244.332L118.915 250.039L120.893 250.336ZM121.139 245.407L130.459 241.609L129.704 239.757L120.384 243.555L121.139 245.407ZM129.092 240.542L125.445 266.141L127.425 266.424L131.072 240.824L129.092 240.542ZM127.048 265.492L106.586 249.627L105.36 251.208L125.822 267.073L127.048 265.492ZM129.563 239.953L124.976 241.81L125.727 243.664L130.313 241.807L129.563 239.953ZM124.362 242.594L122.138 257.961L124.118 258.247L126.341 242.88L124.362 242.594ZM123.741 257.314L111.475 247.797L110.249 249.378L122.515 258.894L123.741 257.314ZM110.488 247.66L105.825 249.538L106.573 251.394L111.236 249.515L110.488 247.66ZM105.588 251.258L125.699 266.772L126.921 265.188L106.81 249.674L105.588 251.258ZM127.3 266.123L130.928 241.023L128.948 240.737L125.32 265.837L127.3 266.123ZM124.819 241.867L120.548 243.628L121.311 245.477L125.582 243.716L124.819 241.867ZM119.943 244.389L118.982 250.176L120.955 250.504L121.916 244.717L119.943 244.389ZM120.57 249.541L115.905 246.026L114.702 247.623L119.367 251.139L120.57 249.541ZM114.936 245.894L110.63 247.596L111.365 249.456L115.671 247.754L114.936 245.894ZM110.386 249.318L122.396 258.592L123.619 257.009L111.609 247.735L110.386 249.318ZM123.997 257.946L126.19 242.936L124.211 242.647L122.018 257.656L123.997 257.946ZM111.278 249.454L115.612 247.706L114.863 245.852L110.53 247.599L111.278 249.454ZM114.863 245.852L110.53 247.599L111.278 249.454L115.612 247.706L114.863 245.852ZM111.278 249.454L115.612 247.706L114.863 245.852L110.53 247.599L111.278 249.454Z" fill="white" mask="url(#path-27-outside-1)"/>
<path d="M110.904 248.527L115.237 246.779L119.968 250.336L120.892 244.496L125.22 242.747L123.084 257.992L110.904 248.527Z" fill="#35495E"/>
<path d="M106.193 250.468L110.901 248.529L123.08 257.994L125.216 242.75L129.948 240.845L126.306 265.987L106.193 250.468Z" fill="#41B883"/>
</g>
<g clip-path="url(#clip2)">
<path d="M84.5466 245.253H107.041V267.747H84.5466V245.253Z" fill="#F0DB4F"/>
<path d="M105.2 262.382C105.035 261.356 104.366 260.494 102.384 259.69C101.695 259.374 100.928 259.147 100.699 258.626C100.618 258.322 100.607 258.151 100.658 257.967C100.806 257.37 101.518 257.184 102.082 257.356C102.446 257.477 102.79 257.758 102.997 258.204C103.968 257.576 103.966 257.58 104.644 257.148C104.396 256.763 104.263 256.586 104.101 256.421C103.517 255.769 102.722 255.433 101.449 255.459L100.787 255.545C100.152 255.705 99.5464 256.038 99.1916 256.485C98.1267 257.694 98.4304 259.808 99.7261 260.678C101.003 261.636 102.878 261.854 103.117 262.75C103.35 263.847 102.311 264.202 101.278 264.076C100.517 263.918 100.094 263.531 99.6363 262.827C98.7939 263.315 98.7939 263.315 97.9278 263.813C98.1332 264.262 98.349 264.465 98.6933 264.854C100.323 266.507 104.4 266.426 105.131 263.924C105.161 263.838 105.358 263.265 105.2 262.382V262.382ZM96.7751 255.591H94.6712L94.6625 261.031C94.6625 262.188 94.7224 263.248 94.5342 263.573C94.2264 264.213 93.4288 264.133 93.0653 264.009C92.6953 263.828 92.5072 263.569 92.2892 263.203C92.2294 263.099 92.1845 263.017 92.1694 263.011L90.4587 264.059C90.7432 264.642 91.1622 265.149 91.6989 265.478C92.5007 265.96 93.5783 266.107 94.7053 265.848C95.4388 265.635 96.0716 265.192 96.403 264.518C96.882 263.635 96.7792 262.566 96.7749 261.384C96.7857 259.455 96.7751 257.526 96.7751 255.591Z" fill="#323330"/>
</g>
<rect x="84.7937" y="245.5" width="22" height="22" stroke="white"/>
<path fill-rule="evenodd" clip-rule="evenodd" d="M202.239 259.102C202.286 259.922 203.106 259.547 203.481 259.289C203.833 259.031 203.95 259.242 203.973 258.75C203.997 258.422 204.02 258.117 204.02 257.789C203.481 257.742 202.895 257.859 202.45 258.187C202.239 258.352 201.794 258.891 202.239 259.102" fill="#F6D2A2"/>
<path d="M202.684 259.687C202.52 259.687 202.215 259.617 202.169 259.148C202.028 259.055 201.981 258.937 201.981 258.867C201.958 258.586 202.262 258.258 202.426 258.141C202.801 257.859 203.294 257.719 203.809 257.719H204.114V257.789C204.137 258.047 204.114 258.305 204.09 258.539C204.09 258.609 204.09 258.68 204.067 258.75C204.044 259.102 203.973 259.148 203.809 259.219C203.739 259.242 203.669 259.266 203.551 259.359C203.434 259.43 203.036 259.687 202.684 259.687V259.687ZM203.809 257.859C203.317 257.859 202.872 258 202.52 258.258C202.356 258.375 202.122 258.656 202.145 258.844C202.145 258.914 202.192 258.984 202.286 259.031L202.333 259.055V259.102C202.356 259.477 202.544 259.523 202.684 259.523C202.919 259.523 203.247 259.359 203.458 259.219C203.598 259.125 203.692 259.102 203.762 259.078C203.879 259.031 203.903 259.031 203.926 258.75C203.926 258.68 203.926 258.609 203.95 258.539C203.973 258.328 203.973 258.094 203.973 257.883C203.903 257.859 203.856 257.859 203.809 257.859V257.859Z" fill="black"/>
<path fill-rule="evenodd" clip-rule="evenodd" d="M202.239 259.102C202.356 259.055 202.497 259.031 202.567 258.914Z" fill="#C6B198"/>
<path d="M202.239 259.172C202.215 259.172 202.169 259.148 202.169 259.125C202.145 259.078 202.169 259.031 202.215 259.031C202.239 259.031 202.262 259.008 202.262 259.008C202.356 258.961 202.45 258.938 202.497 258.867C202.52 258.844 202.567 258.82 202.614 258.844C202.637 258.867 202.661 258.914 202.637 258.961C202.544 259.078 202.426 259.125 202.333 259.148L202.286 259.172H202.239Z" fill="black"/>
<path fill-rule="evenodd" clip-rule="evenodd" d="M204.161 249.188C200.973 248.297 203.34 244.242 205.895 245.906L204.161 249.188V249.188Z" fill="#6AD7E5"/>
<path d="M204.208 249.281L204.138 249.258C202.497 248.789 202.52 247.617 202.567 247.266C202.684 246.375 203.528 245.438 204.653 245.438C205.098 245.438 205.52 245.578 205.942 245.859L206.013 245.906L204.208 249.281V249.281ZM204.653 245.602C203.598 245.602 202.825 246.469 202.708 247.289C202.591 248.133 203.106 248.789 204.114 249.094L205.778 245.93C205.427 245.719 205.052 245.602 204.653 245.602V245.602Z" fill="black"/>
<path fill-rule="evenodd" clip-rule="evenodd" d="M218.294 245.602C220.802 243.844 223.098 247.828 220.169 248.836L218.294 245.602V245.602Z" fill="#6AD7E5"/>
<path d="M220.145 248.93L218.2 245.578L218.27 245.531C218.716 245.227 219.161 245.062 219.606 245.062C220.684 245.062 221.458 245.953 221.622 246.82C221.692 247.172 221.762 248.367 220.216 248.883L220.145 248.93ZM218.411 245.648L220.216 248.766C221.13 248.437 221.598 247.734 221.458 246.891C221.317 246.094 220.591 245.273 219.606 245.273C219.208 245.25 218.809 245.367 218.411 245.648Z" fill="black"/>
<path fill-rule="evenodd" clip-rule="evenodd" d="M218.856 269.32C219.489 269.719 220.661 270.914 219.7 271.5C218.786 272.344 218.27 270.562 217.45 270.328C217.802 269.859 218.247 269.414 218.856 269.32Z" fill="#F6D2A2"/>
<path d="M219.208 271.805C218.833 271.805 218.505 271.43 218.223 271.078C217.966 270.797 217.708 270.492 217.427 270.398L217.309 270.375L217.38 270.281C217.661 269.883 218.13 269.367 218.833 269.25H218.856L218.88 269.273C219.278 269.531 220.145 270.258 220.122 270.937C220.122 271.195 219.981 271.406 219.723 271.57C219.559 271.734 219.395 271.805 219.208 271.805V271.805ZM217.567 270.281C217.848 270.398 218.083 270.703 218.317 270.961C218.598 271.313 218.88 271.617 219.184 271.617C219.325 271.617 219.466 271.547 219.606 271.406H219.63C219.841 271.266 219.958 271.102 219.958 270.891C219.958 270.352 219.278 269.672 218.809 269.367C218.387 269.484 217.966 269.766 217.567 270.281ZM219.7 271.57C219.677 271.57 219.653 271.547 219.63 271.523C219.583 271.43 219.536 271.313 219.512 271.219C219.442 271.031 219.372 270.844 219.231 270.703C219.208 270.68 219.208 270.633 219.231 270.586C219.255 270.562 219.302 270.562 219.348 270.586C219.512 270.75 219.606 270.961 219.677 271.172L219.794 271.453C219.817 271.5 219.794 271.547 219.77 271.57H219.7V271.57Z" fill="black"/>
<path fill-rule="evenodd" clip-rule="evenodd" d="M207.419 270.68C206.669 270.797 206.247 271.477 205.614 271.828C205.028 272.18 204.794 271.711 204.747 271.617C204.653 271.57 204.653 271.664 204.513 271.523C203.974 270.656 205.075 270.023 205.661 269.602C206.481 269.414 206.997 270.117 207.419 270.68" fill="#F6D2A2"/>
<path d="M205.216 272.016C204.911 272.016 204.747 271.758 204.7 271.664H204.677C204.606 271.664 204.559 271.641 204.466 271.547V271.523C203.95 270.703 204.841 270.07 205.427 269.648L205.638 269.508H205.684C205.778 269.484 205.848 269.484 205.942 269.484C206.645 269.484 207.091 270.094 207.466 270.586L207.583 270.75L207.442 270.773C206.997 270.844 206.669 271.125 206.341 271.406C206.13 271.594 205.919 271.758 205.684 271.898C205.497 271.969 205.356 272.016 205.216 272.016V272.016ZM204.7 271.523C204.723 271.523 204.747 271.523 204.794 271.547H204.817L204.841 271.57C204.888 271.641 205.005 271.852 205.239 271.852C205.356 271.852 205.473 271.805 205.591 271.734C205.825 271.617 206.036 271.43 206.223 271.266C206.528 271.008 206.856 270.727 207.278 270.609C206.927 270.141 206.505 269.625 205.919 269.625C205.848 269.625 205.778 269.625 205.708 269.648L205.52 269.789C204.911 270.211 204.161 270.75 204.606 271.453C204.63 271.5 204.653 271.523 204.7 271.523V271.523ZM204.747 271.687C204.7 271.687 204.653 271.641 204.677 271.594C204.7 271.359 204.817 271.195 204.934 271.008C205.005 270.914 205.052 270.82 205.098 270.727C205.122 270.68 205.169 270.68 205.192 270.68C205.239 270.703 205.239 270.75 205.239 270.773C205.192 270.891 205.122 270.984 205.052 271.078C204.934 271.242 204.841 271.383 204.817 271.57C204.817 271.664 204.794 271.687 204.747 271.687V271.687Z" fill="black"/>
<path fill-rule="evenodd" clip-rule="evenodd" d="M204.302 248.086C203.88 247.875 203.575 247.57 203.833 247.078C204.067 246.633 204.513 246.68 204.934 246.891L204.302 248.086V248.086ZM219.513 247.664C219.934 247.453 220.239 247.148 219.981 246.656C219.747 246.211 219.302 246.258 218.88 246.469L219.513 247.664Z" fill="black"/>
<path fill-rule="evenodd" clip-rule="evenodd" d="M222.395 258.984C222.348 259.805 221.528 259.43 221.153 259.172C220.802 258.914 220.684 259.125 220.661 258.633C220.637 258.305 220.614 258 220.614 257.672C221.153 257.625 221.739 257.742 222.184 258.07C222.419 258.258 222.841 258.773 222.395 258.984" fill="#F6D2A2"/>
<path d="M221.973 259.57C221.622 259.57 221.223 259.312 221.106 259.242C220.989 259.172 220.919 259.125 220.848 259.102C220.661 259.031 220.614 258.984 220.591 258.633C220.591 258.562 220.591 258.492 220.567 258.422C220.544 258.187 220.52 257.93 220.544 257.672V257.602H220.848C221.364 257.602 221.856 257.742 222.231 258.023C222.395 258.141 222.7 258.469 222.676 258.75C222.676 258.844 222.63 258.961 222.489 259.031C222.442 259.5 222.137 259.57 221.973 259.57V259.57ZM220.684 257.766C220.684 257.977 220.684 258.211 220.708 258.422C220.708 258.492 220.708 258.562 220.731 258.633C220.755 258.914 220.778 258.914 220.895 258.961C220.966 258.984 221.059 259.031 221.2 259.102C221.411 259.242 221.739 259.406 221.973 259.406C222.114 259.406 222.301 259.359 222.325 258.984V258.937L222.372 258.914C222.466 258.867 222.512 258.82 222.512 258.727C222.536 258.539 222.301 258.258 222.137 258.141C221.786 257.883 221.317 257.742 220.848 257.742C220.801 257.766 220.755 257.766 220.684 257.766V257.766Z" fill="black"/>
<path fill-rule="evenodd" clip-rule="evenodd" d="M222.395 258.984C222.278 258.937 222.137 258.914 222.067 258.797Z" fill="#C6B198"/>
<path d="M222.395 259.078H222.372L222.325 259.055C222.208 259.008 222.091 258.984 222.02 258.867C221.997 258.844 221.997 258.773 222.044 258.75C222.067 258.727 222.137 258.727 222.161 258.773C222.208 258.844 222.302 258.867 222.395 258.914C222.419 258.914 222.442 258.938 222.442 258.938C222.489 258.961 222.512 259.008 222.489 259.031C222.466 259.055 222.419 259.078 222.395 259.078Z" fill="black"/>
<path fill-rule="evenodd" clip-rule="evenodd" d="M212.012 243.938C215.2 243.938 218.177 244.383 219.747 247.453C221.153 250.875 220.637 254.578 220.872 258.211C221.059 261.328 221.458 264.914 220.028 267.797C218.505 270.82 214.708 271.594 211.591 271.477C209.13 271.383 206.177 270.586 204.77 268.336C203.153 265.711 203.903 261.797 204.02 258.867C204.161 255.398 203.083 251.906 204.231 248.531C205.38 244.992 208.567 244.195 212.012 243.938" fill="#6AD7E5"/>
<path d="M212.13 271.57H211.544C210.583 271.547 209.13 271.383 207.7 270.797C206.317 270.234 205.309 269.437 204.653 268.383C203.34 266.25 203.575 263.32 203.786 260.719C203.833 260.062 203.88 259.453 203.903 258.867C203.95 257.648 203.856 256.383 203.739 255.187C203.551 252.984 203.364 250.711 204.09 248.508C204.653 246.867 205.661 245.695 207.184 244.945C208.38 244.359 209.856 244.031 211.965 243.867C215.106 243.844 218.223 244.289 219.794 247.406C220.825 249.914 220.825 252.609 220.848 255.211C220.848 256.195 220.848 257.203 220.919 258.187C220.942 258.492 220.965 258.797 220.965 259.102C221.153 261.961 221.364 265.195 220.051 267.82C219.395 269.156 218.247 270.141 216.676 270.773C215.411 271.289 213.817 271.57 212.13 271.57V271.57ZM212.012 244.008C208.708 244.266 205.473 244.992 204.278 248.555C203.551 250.734 203.739 252.984 203.926 255.164C204.02 256.383 204.137 257.625 204.09 258.867C204.067 259.453 204.02 260.062 203.973 260.719C203.762 263.297 203.528 266.203 204.817 268.289C205.356 269.156 207.09 271.219 211.567 271.383H212.153C217.333 271.383 219.255 269.086 219.958 267.727C221.247 265.148 221.036 261.914 220.872 259.078C220.848 258.773 220.825 258.469 220.825 258.164C220.778 257.18 220.755 256.172 220.755 255.187C220.731 252.609 220.731 249.914 219.723 247.43C219.02 246.047 217.965 245.109 216.512 244.57C215.012 244.078 213.325 244.008 212.012 244.008V244.008Z" fill="black"/>
<path fill-rule="evenodd" clip-rule="evenodd" d="M212.575 248.203C213.138 251.531 218.575 250.641 217.802 247.289C217.098 244.289 212.388 245.133 212.575 248.203Z" fill="white"/>
<path d="M215.153 250.383C214.098 250.383 212.762 249.82 212.481 248.227C212.434 247.477 212.669 246.797 213.161 246.281C213.7 245.695 214.52 245.367 215.364 245.367C216.348 245.367 217.52 245.883 217.848 247.312C218.036 248.109 217.895 248.813 217.45 249.375C216.958 249.984 216.091 250.383 215.153 250.383ZM212.645 248.203C212.762 248.859 213.067 249.375 213.559 249.75C213.981 250.078 214.567 250.242 215.153 250.242C216.02 250.242 216.864 249.867 217.333 249.281C217.755 248.766 217.872 248.086 217.708 247.336C217.403 246 216.302 245.531 215.364 245.531C214.567 245.531 213.794 245.859 213.278 246.398C212.833 246.867 212.598 247.5 212.645 248.203V248.203Z" fill="black"/>
<path fill-rule="evenodd" clip-rule="evenodd" d="M206.083 248.742C206.833 251.625 211.45 250.898 211.286 247.992C211.075 244.523 205.356 245.18 206.083 248.742Z" fill="white"/>
<path d="M208.544 250.664C207.536 250.664 206.364 250.172 205.989 248.766C205.825 247.945 205.989 247.195 206.458 246.633C206.973 246 207.817 245.625 208.731 245.625C209.95 245.625 211.239 246.352 211.333 247.992C211.38 248.672 211.169 249.281 210.7 249.773C210.208 250.313 209.387 250.664 208.544 250.664ZM208.731 245.789C207.864 245.789 207.067 246.141 206.575 246.727C206.13 247.266 205.989 247.945 206.153 248.719C206.481 250.031 207.606 250.5 208.544 250.5C209.34 250.5 210.114 250.195 210.606 249.656C211.028 249.211 211.239 248.625 211.192 247.992C211.145 246.984 210.465 245.789 208.731 245.789V245.789Z" fill="black"/>
<path fill-rule="evenodd" clip-rule="evenodd" d="M213.231 252.187C213.231 252.609 213.325 253.102 213.255 253.57C213.138 253.781 212.927 253.805 212.739 253.875C212.481 253.828 212.27 253.664 212.153 253.43C212.083 252.914 212.177 252.398 212.2 251.883L213.231 252.187V252.187Z" fill="white"/>
<path d="M212.739 253.969C212.434 253.922 212.2 253.734 212.083 253.477C212.036 253.102 212.059 252.75 212.083 252.398C212.106 252.234 212.106 252.07 212.106 251.906V251.812L213.301 252.188V252.234C213.301 252.375 213.325 252.516 213.325 252.68C213.348 252.984 213.372 253.313 213.325 253.617V253.641C213.231 253.828 213.067 253.875 212.903 253.945C212.856 253.922 212.809 253.945 212.739 253.969ZM212.223 253.406C212.317 253.617 212.505 253.758 212.716 253.805C212.762 253.781 212.809 253.781 212.833 253.758C212.973 253.711 213.091 253.664 213.161 253.547C213.208 253.266 213.184 252.961 213.161 252.656C213.161 252.516 213.137 252.375 213.137 252.258L212.247 251.977C212.247 252.117 212.223 252.258 212.223 252.375C212.2 252.75 212.176 253.078 212.223 253.406V253.406Z" fill="black"/>
<path fill-rule="evenodd" clip-rule="evenodd" d="M208.145 248.273C208.145 248.742 207.794 249.117 207.372 249.117C206.95 249.117 206.598 248.742 206.598 248.273C206.598 247.805 206.95 247.43 207.372 247.43C207.794 247.43 208.145 247.805 208.145 248.273Z" fill="black"/>
<path fill-rule="evenodd" clip-rule="evenodd" d="M207.887 248.461C207.887 248.578 207.794 248.672 207.7 248.672C207.606 248.672 207.512 248.578 207.512 248.461C207.512 248.344 207.606 248.25 207.7 248.25C207.817 248.25 207.887 248.344 207.887 248.461Z" fill="white"/>
<path fill-rule="evenodd" clip-rule="evenodd" d="M214.684 248.062C214.684 248.531 214.333 248.906 213.911 248.906C213.489 248.906 213.137 248.531 213.137 248.062C213.137 247.594 213.489 247.219 213.911 247.219C214.333 247.219 214.684 247.594 214.684 248.062Z" fill="black"/>
<path fill-rule="evenodd" clip-rule="evenodd" d="M214.45 248.25C214.45 248.367 214.38 248.461 214.262 248.461C214.169 248.461 214.075 248.367 214.075 248.25C214.075 248.133 214.145 248.039 214.262 248.039C214.356 248.039 214.45 248.133 214.45 248.25Z" fill="white"/>
<path fill-rule="evenodd" clip-rule="evenodd" d="M210.981 252.141C210.63 252.961 211.169 254.625 212.106 253.406C212.036 252.891 212.13 252.375 212.153 251.859L210.981 252.141Z" fill="white"/>
<path d="M211.473 253.922C211.309 253.922 211.145 253.828 211.028 253.641C210.77 253.266 210.723 252.562 210.911 252.117L210.934 252.07L212.223 251.742V251.836L212.2 252.352C212.177 252.703 212.153 253.031 212.2 253.383V253.406L212.177 253.43C211.942 253.758 211.708 253.922 211.473 253.922ZM211.052 252.211C210.911 252.609 210.958 253.242 211.169 253.547C211.262 253.687 211.356 253.758 211.473 253.758C211.637 253.758 211.825 253.617 212.012 253.383C211.966 253.031 211.989 252.68 212.036 252.352L212.059 251.953L211.052 252.211Z" fill="black"/>
<path fill-rule="evenodd" clip-rule="evenodd" d="M211.098 250.547C210.466 250.594 209.95 251.367 210.278 251.953C210.723 252.75 211.684 251.883 212.294 251.953C212.997 251.977 213.559 252.703 214.122 252.094C214.755 251.414 213.841 250.758 213.161 250.453L211.098 250.547V250.547Z" fill="#F6D2A2"/>
<path d="M213.63 252.422C213.419 252.422 213.208 252.328 212.997 252.234C212.786 252.141 212.552 252.047 212.294 252.047H212.224C212.036 252.047 211.825 252.117 211.591 252.211C211.333 252.305 211.075 252.375 210.841 252.375C210.559 252.375 210.349 252.258 210.208 252C210.044 251.719 210.067 251.391 210.231 251.086C210.419 250.734 210.747 250.523 211.099 250.477L213.184 250.383H213.208C213.724 250.594 214.309 250.992 214.427 251.461C214.474 251.695 214.403 251.93 214.216 252.141C214.028 252.352 213.841 252.422 213.63 252.422V252.422ZM212.317 251.906C212.575 251.906 212.833 252.023 213.067 252.117C213.278 252.211 213.466 252.281 213.653 252.281C213.817 252.281 213.958 252.211 214.099 252.07C214.263 251.906 214.309 251.719 214.286 251.531C214.192 251.133 213.63 250.758 213.184 250.57L211.145 250.664C210.841 250.688 210.559 250.898 210.395 251.18C210.255 251.438 210.255 251.719 210.372 251.953C210.489 252.164 210.63 252.258 210.864 252.258C211.075 252.258 211.309 252.164 211.544 252.094C211.802 252 212.013 251.93 212.247 251.93C212.247 251.883 212.27 251.883 212.317 251.906V251.906Z" fill="#231F20"/>
<path fill-rule="evenodd" clip-rule="evenodd" d="M211.028 250.523C210.981 249.422 213.091 249.281 213.325 250.195C213.583 251.133 211.122 251.344 211.028 250.523" fill="black"/>
<g clip-path="url(#clip3)">
<path d="M224.594 204.475L222.037 193.895C222 193.714 221.881 193.532 221.719 193.362C221.558 193.192 221.367 193.076 221.203 193.017L210.797 189.969C210.426 189.863 209.911 190.029 209.642 190.284L201.752 197.774C201.596 197.922 201.439 198.125 201.39 198.386L224.534 205.178C224.623 204.932 224.63 204.683 224.594 204.475V204.475Z" fill="#9B4F96"/>
<path d="M201.365 198.33C201.318 198.509 201.313 198.702 201.351 198.855L203.88 209.434C203.917 209.615 204.036 209.798 204.198 209.968C204.359 210.138 204.55 210.253 204.714 210.313L215.12 213.36C215.491 213.467 216.006 213.3 216.275 213.045L224.165 205.555C224.293 205.434 224.421 205.285 224.481 205.094L201.365 198.33V198.33Z" fill="#68217A"/>
<path d="M214.115 206.316C212.502 206.716 210.718 206.255 209.495 204.966C207.679 203.054 207.758 200.017 209.671 198.201C211.583 196.386 214.62 196.465 216.436 198.377C217.659 199.666 218.027 201.472 217.529 203.075L220.34 203.908C221.111 201.345 220.537 198.443 218.56 196.36C215.629 193.272 210.742 193.145 207.654 196.076C204.566 199.008 204.439 203.895 207.37 206.983C209.333 209.051 212.188 209.789 214.773 209.165L214.115 206.316V206.316ZM217.091 206.642L217.821 206.191L217.256 205.596L217.922 204.964L218.608 205.687L219.648 205.023L220.306 205.717L219.281 206.367L219.792 206.906L220.817 206.255L221.463 206.935L220.437 207.586L220.76 207.926L220.094 208.558L219.651 208.09L218.92 208.541L219.485 209.136L218.819 209.768L218.134 209.045L217.122 209.682L216.464 208.988L217.475 208.351L216.964 207.813L215.953 208.45L215.307 207.77L216.318 207.133L215.996 206.793L216.661 206.161L217.105 206.629L217.091 206.642ZM217.736 207.322L218.247 207.86L218.978 207.41L218.467 206.871L217.736 207.322Z" fill="white"/>
</g>
<g clip-path="url(#clip4)">
<path d="M123.397 227.689C123.397 230.315 125.962 232.768 130.006 234.15C129.199 238.216 129.861 241.493 132.075 242.77C134.351 244.082 137.742 243.174 140.959 240.361C144.096 243.06 147.266 244.122 149.478 242.842C151.752 241.526 152.443 238.026 151.614 233.834C155.826 232.441 158.182 230.35 158.182 227.689C158.182 225.122 155.612 222.902 151.622 221.529C152.516 217.163 151.759 213.966 149.453 212.636C147.23 211.354 144.023 212.472 140.84 215.241C137.529 212.301 134.354 211.404 132.05 212.737C129.83 214.023 129.196 217.359 130.006 221.5C126.098 222.863 123.397 225.133 123.397 227.689Z" fill="white"/>
<path d="M150.778 222.893C150.457 222.783 150.125 222.678 149.783 222.58C149.839 222.35 149.891 222.124 149.937 221.901C150.689 218.247 150.197 215.303 148.517 214.334C146.905 213.405 144.269 214.374 141.607 216.69C141.351 216.913 141.095 217.149 140.838 217.396C140.667 217.233 140.497 217.074 140.326 216.923C137.537 214.446 134.74 213.402 133.061 214.375C131.451 215.307 130.974 218.074 131.652 221.537C131.717 221.872 131.794 222.213 131.88 222.56C131.485 222.673 131.103 222.793 130.737 222.92C127.466 224.06 125.378 225.847 125.378 227.701C125.378 229.616 127.62 231.536 131.027 232.7C131.295 232.792 131.574 232.879 131.862 232.962C131.769 233.337 131.687 233.705 131.619 234.064C130.973 237.467 131.478 240.169 133.084 241.095C134.742 242.052 137.526 241.069 140.236 238.699C140.451 238.512 140.666 238.314 140.881 238.105C141.16 238.374 141.439 238.629 141.716 238.867C144.342 241.127 146.935 242.039 148.539 241.11C150.196 240.151 150.734 237.248 150.035 233.717C149.982 233.447 149.92 233.171 149.85 232.891C150.045 232.833 150.237 232.774 150.424 232.711C153.966 231.538 156.27 229.641 156.27 227.701C156.27 225.841 154.114 224.041 150.778 222.893Z" fill="#53C1DE"/>
<path d="M150.01 231.459C149.841 231.515 149.667 231.569 149.491 231.621C149.1 230.383 148.572 229.067 147.926 227.708C148.543 226.38 149.05 225.081 149.43 223.851C149.746 223.943 150.053 224.039 150.348 224.141C153.207 225.125 154.951 226.58 154.951 227.701C154.951 228.895 153.067 230.446 150.01 231.459ZM148.741 233.973C149.05 235.535 149.094 236.946 148.889 238.05C148.705 239.042 148.335 239.703 147.878 239.968C146.904 240.532 144.822 239.799 142.577 237.867C142.319 237.645 142.06 237.409 141.8 237.159C142.671 236.207 143.541 235.1 144.39 233.871C145.883 233.738 147.294 233.521 148.574 233.226C148.637 233.48 148.693 233.729 148.741 233.973ZM135.91 239.871C134.959 240.207 134.201 240.216 133.743 239.952C132.769 239.39 132.364 237.221 132.916 234.31C132.979 233.977 133.055 233.635 133.142 233.285C134.407 233.565 135.808 233.766 137.305 233.887C138.159 235.09 139.055 236.196 139.957 237.164C139.76 237.354 139.563 237.535 139.368 237.706C138.169 238.753 136.968 239.497 135.91 239.871ZM131.454 231.451C129.947 230.937 128.703 230.267 127.851 229.537C127.084 228.881 126.698 228.23 126.698 227.701C126.698 226.576 128.375 225.141 131.172 224.166C131.511 224.048 131.866 223.936 132.235 223.832C132.622 225.089 133.129 226.404 133.741 227.733C133.121 229.082 132.606 230.418 132.216 231.69C131.953 231.615 131.699 231.535 131.454 231.451ZM132.947 221.284C132.367 218.317 132.752 216.078 133.723 215.517C134.756 214.918 137.042 215.771 139.45 217.91C139.604 218.047 139.759 218.19 139.914 218.338C139.016 219.302 138.129 220.399 137.282 221.595C135.829 221.729 134.438 221.946 133.16 222.235C133.079 221.912 133.008 221.594 132.947 221.284ZM146.273 224.574C145.967 224.046 145.653 223.531 145.334 223.029C146.319 223.154 147.264 223.319 148.15 223.522C147.884 224.375 147.552 225.267 147.162 226.182C146.881 225.65 146.585 225.113 146.273 224.574ZM140.839 219.281C141.448 219.941 142.057 220.677 142.657 221.476C142.053 221.447 141.441 221.432 140.824 221.432C140.213 221.432 139.606 221.447 139.006 221.475C139.606 220.684 140.221 219.948 140.839 219.281ZM135.37 224.583C135.065 225.113 134.774 225.646 134.498 226.181C134.113 225.269 133.785 224.373 133.516 223.508C134.398 223.31 135.337 223.149 136.317 223.027C135.992 223.533 135.676 224.052 135.37 224.583V224.583ZM136.345 232.469C135.333 232.357 134.379 232.204 133.498 232.012C133.771 231.131 134.107 230.216 134.499 229.285C134.776 229.819 135.068 230.352 135.375 230.883H135.375C135.688 231.424 136.012 231.953 136.345 232.469ZM140.875 236.214C140.25 235.539 139.626 234.793 139.017 233.99C139.608 234.013 140.211 234.025 140.824 234.025C141.454 234.025 142.076 234.011 142.689 233.983C142.087 234.801 141.48 235.548 140.875 236.214ZM147.174 229.237C147.587 230.178 147.935 231.089 148.212 231.955C147.316 232.159 146.349 232.324 145.33 232.446C145.651 231.938 145.967 231.413 146.278 230.874C146.593 230.328 146.892 229.782 147.174 229.237ZM145.135 230.215C144.652 231.052 144.156 231.851 143.653 232.606C142.736 232.671 141.789 232.705 140.824 232.705C139.863 232.705 138.928 232.675 138.027 232.617C137.504 231.852 136.997 231.051 136.517 230.222H136.517C136.039 229.395 135.598 228.562 135.199 227.733C135.598 226.902 136.037 226.067 136.513 225.242L136.513 225.242C136.99 224.415 137.492 223.617 138.011 222.858C138.93 222.788 139.872 222.752 140.824 222.752H140.824C141.781 222.752 142.724 222.789 143.642 222.859C144.153 223.613 144.652 224.408 145.131 225.235C145.615 226.072 146.06 226.901 146.463 227.714C146.061 228.541 145.617 229.378 145.135 230.215ZM147.858 215.477C148.892 216.074 149.294 218.48 148.644 221.635C148.603 221.836 148.556 222.041 148.506 222.249C147.224 221.953 145.832 221.733 144.375 221.597C143.526 220.388 142.646 219.289 141.764 218.337C142.001 218.109 142.238 217.891 142.474 217.686C144.755 215.701 146.886 214.917 147.858 215.477Z" fill="white"/>
<path d="M140.824 224.943C142.348 224.943 143.583 226.178 143.583 227.701C143.583 229.225 142.348 230.46 140.824 230.46C139.301 230.46 138.065 229.225 138.065 227.701C138.065 226.178 139.301 224.943 140.824 224.943Z" fill="#53C1DE"/>
</g>
<g clip-path="url(#clip5)">
<path d="M70.2668 191.041L61.0255 193.493C60.4468 193.651 59.9667 194.131 59.8051 194.713L57.2909 204.017C57.1293 204.616 57.2714 205.297 57.7115 205.737L64.492 212.517C64.9321 212.957 65.6199 213.093 66.2205 212.932L68.6684 212.258C69.7821 211.879 70.0458 211.615 70.3853 211.276C71.4901 210.171 71.4531 208.872 70.2879 207.707L63.5938 201.013C63.4992 200.918 63.3094 200.826 63.2166 200.919L62.4711 201.665C62.3767 201.759 62.306 202.111 62.4004 202.206L69.0945 208.9C69.611 209.416 69.6578 210.397 68.3481 210.834L65.8051 211.517C65.7184 211.543 65.6174 211.521 65.5527 211.457L58.7721 204.676C58.7082 204.612 58.7177 204.475 58.7415 204.385L61.2424 195.106C61.2663 195.02 61.3472 194.939 61.4332 194.916L70.6393 192.486C70.7286 192.464 70.7711 192.545 70.837 192.611L77.6176 199.392C77.6823 199.457 77.7695 199.495 77.7456 199.581L75.2915 208.817C75.2715 208.898 75.2093 208.96 75.1243 208.985L72.7304 209.589C72.659 209.608 72.5959 209.652 72.5768 209.72C72.3961 210.373 72.3506 210.482 72.095 211.008C72.0323 211.138 71.9485 211.338 72.4051 211.21L75.5277 210.408C75.8242 210.329 76.0942 210.172 76.309 209.958C76.5267 209.74 76.6834 209.47 76.7625 209.174L79.1892 199.964C79.348 199.361 79.1184 198.771 78.6784 198.331L71.8978 191.55C71.4578 191.11 70.8671 190.88 70.2668 191.041V191.041ZM72.4213 202.439C70.8666 203.994 70.0952 203.907 69.208 203.249C69.1115 203.179 68.9412 203.15 68.8565 203.234L68.0967 203.994C68.0027 204.088 68.0411 204.278 68.1347 204.371C69.1246 205.361 70.8621 206.022 73.4334 203.451C75.2947 201.59 75.6386 199.799 74.3587 198.519C73.0896 197.25 71.8991 197.775 69.8551 199.341C67.7894 200.924 67.4822 200.988 67.0547 200.56C66.7023 200.208 66.3893 199.581 67.7403 198.23C68.9475 197.023 69.6515 196.837 70.6482 197.468C70.7404 197.528 70.8651 197.513 70.944 197.435L71.7069 196.672C71.7538 196.625 71.7797 196.561 71.779 196.494C71.7748 196.427 71.7464 196.365 71.6936 196.32C70.1744 195.037 68.5905 195.315 66.7079 197.198C65.0332 198.872 64.7414 200.579 65.9268 201.764C67.2126 203.05 68.5619 202.411 70.3284 200.963C72.4401 199.228 72.8707 199.36 73.249 199.738C73.9059 200.395 73.6584 201.202 72.4213 202.439Z" fill="#83CD29"/>
</g>
<defs>
<clipPath id="clip0">
</clipPath>
<clipPath id="clip1">
<rect width="26" height="26" fill="white" transform="translate(105.293 248.735) rotate(-21.9877)"/>
</clipPath>
<clipPath id="clip2">
</clipPath>
<clipPath id="clip3">
<rect width="25" height="25" fill="white" transform="translate(213.425 184) rotate(46.4905)"/>
</clipPath>
<clipPath id="clip4">
<rect width="35" height="31.4453" fill="white" transform="translate(123.294 212)"/>
</clipPath>
<clipPath id="clip5">
<rect width="24" height="24" fill="white" transform="translate(51.2935 201.971) rotate(-45)"/>
</clipPath>
</defs>
</svg>
