<?xml version="1.0" encoding="iso-8859-1"?>
<!-- Generator: Adobe Illustrator 21.1.0, SVG Export Plug-In . SVG Version: 6.00 Build 0)  -->
<svg version="1.1" id="Layer_1" xmlns="http://www.w3.org/2000/svg" xmlns:xlink="http://www.w3.org/1999/xlink" x="0px" y="0px"
	 viewBox="0 0 100.353 100.352" style="enable-background:new 0 0 100.353 100.352;" xml:space="preserve">
<g>
	<path d="M83.33,24.971H63.632v-4.269c0-4.382-2.931-7.947-6.532-7.947H42.969c-3.602,0-6.532,3.565-6.532,7.947v4.269H16.736
		c-4.738,0-8.593,3.854-8.593,8.593V71.47c0,4.738,3.854,8.593,8.593,8.593H83.33c4.738,0,8.593-3.854,8.593-8.593V33.564
		C91.923,28.825,88.068,24.971,83.33,24.971z M39.437,20.702c0-2.682,1.617-4.947,3.532-4.947H57.1c1.915,0,3.532,2.265,3.532,4.947
		v4.269H39.437V20.702z M88.923,71.47c0,3.084-2.509,5.593-5.593,5.593H16.736c-3.084,0-5.593-2.509-5.593-5.593V33.564
		c0-3.084,2.509-5.593,5.593-5.593H83.33c3.084,0,5.593,2.509,5.593,5.593V71.47z" fill="#333333"/>
	<path d="M33.003,54.536c-0.829,0-1.5,0.672-1.5,1.5v12.71c0,0.828,0.671,1.5,1.5,1.5s1.5-0.672,1.5-1.5v-12.71
		C34.503,55.208,33.832,54.536,33.003,54.536z" fill="#333333"/>
	<path d="M43.356,49.69c-0.829,0-1.5,0.672-1.5,1.5v17.557c0,0.828,0.671,1.5,1.5,1.5s1.5-0.672,1.5-1.5V51.19
		C44.856,50.362,44.185,49.69,43.356,49.69z" fill="#333333"/>
	<path d="M54.459,45.153c-0.828,0-1.5,0.671-1.5,1.5v22.093c0,0.828,0.672,1.5,1.5,1.5s1.5-0.672,1.5-1.5V46.653
		C55.959,45.824,55.287,45.153,54.459,45.153z" fill="#333333"/>
	<path d="M66.065,39.97c-0.828,0-1.5,0.671-1.5,1.5v27.276c0,0.828,0.672,1.5,1.5,1.5s1.5-0.672,1.5-1.5V41.47
		C67.565,40.641,66.894,39.97,66.065,39.97z" fill="#333333"/>
</g>
</svg>
