<svg width="108" height="150" viewBox="0 0 108 150" fill="none" xmlns="http://www.w3.org/2000/svg">
<ellipse rx="6" ry="8.5" transform="matrix(-1 0 0 1 6.29346 76.5)" fill="#E4AE92"/>
<path d="M8.29346 82L7.79346 72.2624C5.70655 69.8506 3.79346 70.7249 3.29346 76.3624C3.79346 79.95 5.69326 81.428 8.29346 82Z" fill="#C49074" stroke="#C49074"/>
<ellipse cx="101.293" cy="78.5" rx="6" ry="8.5" fill="#E4AE92"/>
<path d="M99.2935 84L99.7935 74.2624C101.88 71.8506 103.793 72.7249 104.293 78.3624C103.793 81.95 101.894 83.428 99.2935 84Z" fill="#C49074" stroke="#C49074"/>
<path d="M98.2935 106C98.2935 106 103.141 48.0932 97.8129 37.0195C80.4699 0.972431 26.7055 -0.0210991 9.43482 37.0195C4.11494 48.429 9.72259 97.87 10.5661 104.999C10.6361 105.59 10.7608 106.157 10.9442 106.724C27.1653 156.846 84.3075 158.91 98.2935 106Z" fill="#E4AE92"/>
<path d="M44.6716 59.7957C44.1716 60.7957 20.6716 62.2957 19.6716 61.7957C18.6716 61.2957 16.7505 57.2957 17.2505 57.2957C17.7505 57.2957 40.2505 53.2957 42.7507 53.2957C45.2509 53.2957 45.1716 58.7957 44.6716 59.7957Z" fill="black" stroke="black"/>
<ellipse cx="33.6689" cy="72.7957" rx="5.5" ry="6.5" fill="black"/>
<circle cx="34.6689" cy="69.7957" r="1.5" fill="white"/>
<ellipse cx="74.6689" cy="72.7957" rx="5.5" ry="6.5" fill="black"/>
<circle cx="75.6689" cy="69.7957" r="1.5" fill="white"/>
<path d="M63.449 59.7957C63.949 60.7957 87.449 62.2957 88.449 61.7957C89.449 61.2957 91.3701 57.2957 90.8701 57.2957C90.3701 57.2957 67.8701 53.2957 65.3699 53.2957C62.8697 53.2957 62.949 58.7957 63.449 59.7957Z" fill="black" stroke="black"/>
<path d="M9.43456 48.3564C9.70809 57.444 8.3662 65.0668 7.93456 73.3564L6.93456 71.3564C4.46051 48.4986 9.66896 27.8564 13.669 22.3564C17.669 16.8564 32.4346 10.3564 32.4346 10.3564L50.9346 9.35643C63.1784 9.07612 68.8921 9.6866 75.9348 12.8564C82.6768 11.8674 87.0963 18.3116 93.6689 26.7957C98.2007 31.2009 103.328 49.1928 100.435 71.3564L99.9346 73.3564C99.6576 65.1826 97.9951 58.6215 98.4346 48.3564C93.8564 36.187 84.4328 26.5934 85.1689 20.7957C67.6899 15.1209 58.2902 10.4777 22.1689 17.2957C22.1885 23.2986 12.8826 35.549 9.43456 48.3564Z" fill="#B77A63"/>
<path d="M35.1689 22.2956C41.008 24.0969 44.569 27.7859 51.7464 30.0222C52.3259 30.2028 52.9562 30.09 53.4502 29.7373C60.975 24.3648 63.0878 23.0324 66.6118 23.25C66.9759 23.2725 67.3445 23.2117 67.6747 23.0566C74.1619 20.0088 77.6195 19.1203 82.6689 20.2956C83.1881 24.3462 85.7384 25.1916 89.328 27.1116C89.5536 27.2323 89.8012 27.3119 90.0556 27.3388C94.3599 27.794 95.1809 27.0096 95.5688 25.2999C95.6434 24.9714 95.6128 24.6264 95.4997 24.3091C93.3427 18.2569 90.6001 16.2858 85.669 11.7956C77.5062 6.79262 63.5705 -0.49403 59.1689 1.79564C60.0644 3.60229 52.169 -2.20432 52.169 3.79569C48.29 2.19169 40.2124 -0.187924 35.4426 1.79564C36.7412 4.76776 33.6347 4.07944 32.1687 5.29563C25.4877 4.28399 21.9162 4.27718 19.8571 5.64529C19.0543 6.17868 19.1657 7.28984 19.7852 8.02822C21.3661 9.91257 20.6519 10.0314 19.6686 10.7956L13.1689 12.7957C9.02088 14.0787 9.73915 14.7995 13.6689 20.2956C14.9181 21.9513 14.4247 22.9646 18.6686 23.2956C24.4255 24.8555 28.866 24.3416 35.1689 22.2956Z" fill="#23130C" stroke="#23130C"/>
<path d="M63.1689 97.2957C57.1013 98.8247 53.2348 98.8538 47.1689 97.2957C48.7252 99.7116 50.6909 100.7 55.1689 101.296C60.2463 100.74 61.5368 99.6264 63.1689 97.2957Z" fill="#B77A63"/>
<path d="M40.1689 108.796C52.395 115.257 59.2018 115.147 70.6689 108.796C72.1074 131.593 42.521 130.691 40.1689 108.796Z" fill="white"/>
<path d="M42.6689 117.296C52.1971 120.122 63.8768 118.987 68.1689 116.796" stroke="#AEAEAE"/>
<path d="M62.1689 129.796H52.6689C55.1189 133.341 53.3356 136.796 52.6689 137.796C49.6689 142.296 40.1689 138.796 32.1689 136.796C34.1689 138.796 43.0968 145.601 52.6689 148.296C57.3542 149.156 59.4819 149.023 62.1689 148.296C70.8242 145.057 78.6689 139.296 81.1689 135.296C71.1689 139.796 64.7939 141.296 62.1689 137.796C60.6689 135.796 60.2052 133.869 62.1689 129.796Z" fill="#23130C" stroke="#23130C"/>
</svg>
