<?xml version="1.0" encoding="iso-8859-1"?>
<!-- Generator: Adobe Illustrator 21.0.0, SVG Export Plug-In . SVG Version: 6.00 Build 0)  -->
<svg version="1.1" id="Layer_1" xmlns="http://www.w3.org/2000/svg" xmlns:xlink="http://www.w3.org/1999/xlink" x="0px" y="0px"
	 viewBox="0 0 98.624 98.624" style="enable-background:new 0 0 98.624 98.624;" xml:space="preserve">
<path d="M54.585,41.708v-0.116c-0.024,0.038-0.055,0.079-0.078,0.116H54.585z"/>
<path d="M49.312,0C22.078,0,0,22.078,0,49.312s22.078,49.312,49.312,49.312s49.312-22.078,49.312-49.312S76.546,0,49.312,0z
	 M36.108,72.304H24.213V36.52h11.895V72.304z M30.161,31.637h-0.08c-3.99,0-6.576-2.751-6.576-6.186
	c0-3.511,2.663-6.182,6.734-6.182s6.574,2.67,6.652,6.182C36.891,28.887,34.311,31.637,30.161,31.637z M79.007,72.304H67.111V53.159
	c0-4.809-1.721-8.091-6.026-8.091c-3.287,0-5.243,2.212-6.104,4.352c-0.314,0.765-0.395,1.83-0.395,2.9v19.984h-11.9
	c0,0,0.16-32.425,0-35.784h11.898v5.072c1.581-2.435,4.404-5.913,10.723-5.913c7.829,0,13.698,5.114,13.698,16.106v20.519H79.007z"
	/>
</svg>
