<?xml version="1.0" encoding="iso-8859-1"?>
<!-- Generator: Adobe Illustrator 21.0.2, SVG Export Plug-In . SVG Version: 6.00 Build 0)  -->
<svg version="1.1" id="Layer_1" xmlns="http://www.w3.org/2000/svg" xmlns:xlink="http://www.w3.org/1999/xlink" x="0px" y="0px"
	 viewBox="0 0 103 103" style="enable-background:new 0 0 103 103;" xml:space="preserve">
<line style="fill:none;stroke:#f1f1f1;stroke-width:3;stroke-linecap:round;stroke-linejoin:round;stroke-miterlimit:10;" x1="16.186" y1="64.589" x2="90.235" y2="64.589" />
<line style="fill:none;stroke:#f1f1f1;stroke-width:3;stroke-linecap:round;stroke-linejoin:round;stroke-miterlimit:10;" x1="23.245" y1="47.251" x2="39.33" y2="63.905" />
<line style="fill:none;stroke:#f1f1f1;stroke-width:3;stroke-linecap:round;stroke-linejoin:round;stroke-miterlimit:10;" x1="44.105" y1="48.027" x2="59.493" y2="63.981" />
<line style="fill:none;stroke:#f1f1f1;stroke-width:3;stroke-linecap:round;stroke-linejoin:round;stroke-miterlimit:10;" x1="66.038" y1="47.407" x2="81.509" y2="63.905" />
<path style="fill:none;stroke:#f1f1f1;stroke-width:3;stroke-linecap:round;stroke-linejoin:round;stroke-miterlimit:10;" d="
	M87.742,95.487H17.929c-1.371,0-2.493-1.122-2.493-2.493V46.867h74.8v46.127C90.235,94.365,89.113,95.487,87.742,95.487z" />
<g>
	
		<line style="fill:none;stroke:#f1f1f1;stroke-width:3;stroke-linecap:round;stroke-linejoin:round;stroke-miterlimit:10;" x1="17.02" y1="27.415" x2="37.746" y2="37.734"/>
	
		<line style="fill:none;stroke:#f1f1f1;stroke-width:3;stroke-linecap:round;stroke-linejoin:round;stroke-miterlimit:10;" x1="36.939" y1="21.173" x2="56.775" y2="31.066"/>
	
		<line style="fill:none;stroke:#f1f1f1;stroke-width:3;stroke-linecap:round;stroke-linejoin:round;stroke-miterlimit:10;" x1="57.404" y1="13.257" x2="77.499" y2="23.634"/>
	<path style="fill:none;stroke:#f1f1f1;stroke-width:3;stroke-linecap:round;stroke-linejoin:round;stroke-miterlimit:10;" d="
		M11.415,28.264L77.117,4.66c1.291-0.464,2.726,0.213,3.19,1.504l5.489,15.249l-70.395,25.29L9.912,31.454
		C9.447,30.163,10.124,28.728,11.415,28.264z"/>
</g>
</svg>
