<?xml version="1.0" encoding="iso-8859-1"?>
<!-- Generator: Adobe Illustrator 21.1.0, SVG Export Plug-In . SVG Version: 6.00 Build 0)  -->
<svg version="1.1" id="Layer_1" xmlns="http://www.w3.org/2000/svg" xmlns:xlink="http://www.w3.org/1999/xlink" x="0px" y="0px"
	 viewBox="0 0 100.355 100.352" style="enable-background:new 0 0 100.355 100.352;" xml:space="preserve">
<path d="M79.585,7.398H28.167c-3.446,0-6.25,2.804-6.25,6.25v8.848h-6.249c-0.829,0-1.5,0.671-1.5,1.5s0.671,1.5,1.5,1.5h6.249
	v10.373h-6.249c-0.829,0-1.5,0.671-1.5,1.5s0.671,1.5,1.5,1.5h6.249v10.373h-6.249c-0.829,0-1.5,0.671-1.5,1.5
	c0,0.828,0.671,1.5,1.5,1.5h6.249v10.372h-6.249c-0.829,0-1.5,0.672-1.5,1.5s0.671,1.5,1.5,1.5h6.249v9.372h-6.249
	c-0.829,0-1.5,0.672-1.5,1.5s0.671,1.5,1.5,1.5h6.249v10.363c0,3.446,2.804,6.25,6.25,6.25h40.692c0.003,0,0.006,0.001,0.01,0.001
	s0.006-0.001,0.01-0.001h10.707c3.446,0,6.25-2.804,6.25-6.25V13.648C85.835,10.202,83.031,7.398,79.585,7.398z M24.917,88.349
	V77.986h6.013c0.829,0,1.5-0.672,1.5-1.5s-0.671-1.5-1.5-1.5h-6.013v-9.372h6.013c0.829,0,1.5-0.672,1.5-1.5s-0.671-1.5-1.5-1.5
	h-6.013V52.241h6.013c0.829,0,1.5-0.672,1.5-1.5c0-0.829-0.671-1.5-1.5-1.5h-6.013V38.869h6.013c0.829,0,1.5-0.671,1.5-1.5
	s-0.671-1.5-1.5-1.5h-6.013V25.496h6.013c0.829,0,1.5-0.671,1.5-1.5s-0.671-1.5-1.5-1.5h-6.013v-8.848c0-1.792,1.458-3.25,3.25-3.25
	h39.201v81.201H28.167C26.375,91.599,24.917,90.141,24.917,88.349z M82.835,88.349c0,1.792-1.458,3.25-3.25,3.25h-9.217V10.398
	h9.217c1.792,0,3.25,1.458,3.25,3.25V88.349z" fill="#F1F1F1"/>
</svg>
